<svg width="536" height="536" viewBox="0 0 536 536" fill="none" xmlns="http://www.w3.org/2000/svg">
<g clip-path="url(#clip0_3_2)">
<g filter="url(#filter0_di_3_2)">
<path fill-rule="evenodd" clip-rule="evenodd" d="M22 89.4096C22 67.0924 40.0921 49 62.4096 49H423.459C445.776 49 463.869 67.0924 463.869 89.4096V193.604V409.034C463.869 431.351 445.776 449.444 423.459 449.444H62.4096C40.0921 449.444 22 431.351 22 409.034V89.4096Z" fill="url(#paint0_linear_3_2)"/>
</g>
<g filter="url(#filter1_i_3_2)">
<path d="M405.686 80.1455H80.1834C65.3048 80.1455 53.2433 92.207 53.2433 107.086V360.212C53.2433 375.09 65.3048 387.152 80.1834 387.152H405.686C420.565 387.152 432.626 375.09 432.626 360.212V107.086C432.626 92.207 420.565 80.1455 405.686 80.1455Z" fill="#262626"/>
</g>
<g filter="url(#filter2_di_3_2)">
<path fill-rule="evenodd" clip-rule="evenodd" d="M98.3233 124.639H133.137C139.546 124.639 144.742 130.062 144.742 136.752V330.547C144.742 337.236 139.546 342.659 133.137 342.659H98.3233C91.9142 342.659 86.7183 337.236 86.7183 330.547V136.752C86.7183 130.062 91.9142 124.639 98.3233 124.639Z" fill="url(#paint1_linear_3_2)"/>
<path fill-rule="evenodd" clip-rule="evenodd" d="M98.3233 124.639H133.137C139.546 124.639 144.742 130.062 144.742 136.752V330.547C144.742 337.236 139.546 342.659 133.137 342.659H98.3233C91.9142 342.659 86.7183 337.236 86.7183 330.547V136.752C86.7183 130.062 91.9142 124.639 98.3233 124.639Z" stroke="url(#paint2_linear_3_2)" stroke-width="4.43302"/>
</g>
<path opacity="0.636157" fill-rule="evenodd" clip-rule="evenodd" d="M109.035 146.886H122.425C124.89 146.886 126.888 148.214 126.888 149.853V197.313C126.888 198.951 124.89 200.279 122.425 200.279H109.035C106.569 200.279 104.571 198.951 104.571 197.313V149.853C104.571 148.214 106.569 146.886 109.035 146.886Z" fill="#0B0B0B"/>
<g filter="url(#filter3_di_3_2)">
<path fill-rule="evenodd" clip-rule="evenodd" d="M183.126 124.639H217.94C224.349 124.639 229.545 130.062 229.545 136.752V330.547C229.545 337.236 224.349 342.659 217.94 342.659H183.126C176.717 342.659 171.521 337.236 171.521 330.547V136.752C171.521 130.062 176.717 124.639 183.126 124.639Z" fill="url(#paint3_linear_3_2)"/>
<path fill-rule="evenodd" clip-rule="evenodd" d="M183.126 124.639H217.94C224.349 124.639 229.545 130.062 229.545 136.752V330.547C229.545 337.236 224.349 342.659 217.94 342.659H183.126C176.717 342.659 171.521 337.236 171.521 330.547V136.752C171.521 130.062 176.717 124.639 183.126 124.639Z" stroke="url(#paint4_linear_3_2)" stroke-width="4.43302"/>
</g>
<path opacity="0.636157" fill-rule="evenodd" clip-rule="evenodd" d="M193.838 146.886H207.228C209.693 146.886 211.691 148.214 211.691 149.853V197.313C211.691 198.951 209.693 200.279 207.228 200.279H193.838C191.374 200.279 189.375 198.951 189.375 197.313V149.853C189.375 148.214 191.374 146.886 193.838 146.886Z" fill="#0B0B0B"/>
<g filter="url(#filter4_di_3_2)">
<path fill-rule="evenodd" clip-rule="evenodd" d="M267.929 124.639H302.743C309.152 124.639 314.348 130.062 314.348 136.752V330.547C314.348 337.236 309.152 342.659 302.743 342.659H267.929C261.52 342.659 256.325 337.236 256.325 330.547V136.752C256.325 130.062 261.52 124.639 267.929 124.639Z" fill="url(#paint5_linear_3_2)"/>
<path fill-rule="evenodd" clip-rule="evenodd" d="M267.929 124.639H302.743C309.152 124.639 314.348 130.062 314.348 136.752V330.547C314.348 337.236 309.152 342.659 302.743 342.659H267.929C261.52 342.659 256.325 337.236 256.325 330.547V136.752C256.325 130.062 261.52 124.639 267.929 124.639Z" stroke="url(#paint6_linear_3_2)" stroke-width="4.43302"/>
</g>
<path opacity="0.636157" fill-rule="evenodd" clip-rule="evenodd" d="M278.641 146.886H292.031C294.497 146.886 296.494 148.214 296.494 149.853V197.313C296.494 198.951 294.497 200.279 292.031 200.279H278.641C276.176 200.279 274.178 198.951 274.178 197.313V149.853C274.178 148.214 276.176 146.886 278.641 146.886Z" fill="#0B0B0B"/>
<g filter="url(#filter5_di_3_2)">
<path fill-rule="evenodd" clip-rule="evenodd" d="M352.732 124.639H387.546C393.955 124.639 399.151 130.062 399.151 136.752V330.547C399.151 337.236 393.955 342.659 387.546 342.659H352.732C346.323 342.659 341.128 337.236 341.128 330.547V136.752C341.128 130.062 346.323 124.639 352.732 124.639Z" fill="url(#paint7_linear_3_2)"/>
<path fill-rule="evenodd" clip-rule="evenodd" d="M352.732 124.639H387.546C393.955 124.639 399.151 130.062 399.151 136.752V330.547C399.151 337.236 393.955 342.659 387.546 342.659H352.732C346.323 342.659 341.128 337.236 341.128 330.547V136.752C341.128 130.062 346.323 124.639 352.732 124.639Z" stroke="url(#paint8_linear_3_2)" stroke-width="4.43302"/>
</g>
<path opacity="0.636157" fill-rule="evenodd" clip-rule="evenodd" d="M363.444 146.886H376.834C379.3 146.886 381.297 148.214 381.297 149.853V197.313C381.297 198.951 379.3 200.279 376.834 200.279H363.444C360.979 200.279 358.981 198.951 358.981 197.313V149.853C358.981 148.214 360.979 146.886 363.444 146.886Z" fill="#0B0B0B"/>
<g opacity="0.898145" filter="url(#filter6_di_3_2)">
<path d="M242.935 428.721C248.677 428.721 253.331 424.082 253.331 418.359C253.331 412.637 248.677 407.998 242.935 407.998C237.192 407.998 232.538 412.637 232.538 418.359C232.538 424.082 237.192 428.721 242.935 428.721Z" fill="url(#paint9_linear_3_2)"/>
</g>
<g opacity="0.898145" filter="url(#filter7_di_3_2)">
<path d="M196.149 428.721C201.891 428.721 206.546 424.082 206.546 418.359C206.546 412.637 201.891 407.998 196.149 407.998C190.407 407.998 185.752 412.637 185.752 418.359C185.752 424.082 190.407 428.721 196.149 428.721Z" fill="url(#paint10_linear_3_2)"/>
</g>
<g opacity="0.898145" filter="url(#filter8_di_3_2)">
<path d="M289.721 428.721C295.463 428.721 300.118 424.082 300.118 418.359C300.118 412.637 295.463 407.998 289.721 407.998C283.979 407.998 279.324 412.637 279.324 418.359C279.324 424.082 283.979 428.721 289.721 428.721Z" fill="url(#paint11_linear_3_2)"/>
</g>
<path d="M411.953 475.561L503.698 484.291C512.334 485.123 514.545 480.304 514.545 476.222L514.451 471.271L401.616 455.36C401.616 461.01 406.208 475.561 411.953 475.561Z" fill="#C62828"/>
<path d="M411.953 475.561L503.698 484.291C512.334 485.123 514.545 480.304 514.545 476.222L514.451 471.271L401.616 455.36C401.616 461.01 406.208 475.561 411.953 475.561Z" fill="#32FF55"/>
<path d="M411.953 475.561L503.698 484.291C512.334 485.123 514.545 480.304 514.545 476.222L514.451 471.271L401.616 455.36C401.616 461.01 406.208 475.561 411.953 475.561Z" fill="#019564"/>
<path d="M415.298 471.252L429.735 472.518L507.043 479.983C511.201 479.983 514.546 476.676 514.546 472.594L510.445 347.381C510.445 343.299 507.081 339.992 502.943 339.992L415.298 331.715C409.553 331.715 404.885 336.307 404.885 341.958V461.01C404.885 466.66 409.534 471.252 415.298 471.252Z" fill="#F44336"/>
<path d="M415.298 471.252L429.735 472.518L507.043 479.983C511.201 479.983 514.546 476.676 514.546 472.594L510.445 347.381C510.445 343.299 507.081 339.992 502.943 339.992L415.298 331.715C409.553 331.715 404.885 336.307 404.885 341.958V461.01C404.885 466.66 409.534 471.252 415.298 471.252Z" fill="#86FFA4"/>
<path d="M415.298 471.252L429.735 472.518L507.043 479.983C511.201 479.983 514.546 476.676 514.546 472.594L510.445 347.381C510.445 343.299 507.081 339.992 502.943 339.992L415.298 331.715C409.553 331.715 404.885 336.307 404.885 341.958V461.01C404.885 466.66 409.534 471.252 415.298 471.252Z" fill="#3DE09B"/>
<path d="M388.369 475.561L296.623 484.291C287.987 485.123 285.776 480.304 285.776 476.222L285.871 471.271L398.706 455.341C398.706 461.01 394.114 475.561 388.369 475.561Z" fill="#C62828"/>
<path d="M388.369 475.561L296.623 484.291C287.987 485.123 285.776 480.304 285.776 476.222L285.871 471.271L398.706 455.341C398.706 461.01 394.114 475.561 388.369 475.561Z" fill="#32FF55"/>
<path d="M388.369 475.561L296.623 484.291C287.987 485.123 285.776 480.304 285.776 476.222L285.871 471.271L398.706 455.341C398.706 461.01 394.114 475.561 388.369 475.561Z" fill="#019564"/>
<path d="M385.024 471.252L370.7 472.518L293.278 480.001C289.121 480.001 285.776 476.695 285.776 472.613L289.877 347.4C289.877 343.318 293.241 340.011 297.379 340.011L385.024 331.734C390.769 331.734 395.437 336.326 395.437 341.977V461.029C395.437 466.66 390.788 471.252 385.024 471.252Z" fill="#F44336"/>
<path d="M385.024 471.252L370.7 472.518L293.278 480.001C289.121 480.001 285.776 476.695 285.776 472.613L289.877 347.4C289.877 343.318 293.241 340.011 297.379 340.011L385.024 331.734C390.769 331.734 395.437 336.326 395.437 341.977V461.029C395.437 466.66 390.788 471.252 385.024 471.252Z" fill="#86FFA4"/>
<path d="M385.024 471.252L370.7 472.518L293.278 480.001C289.121 480.001 285.776 476.695 285.776 472.613L289.877 347.4C289.877 343.318 293.241 340.011 297.379 340.011L385.024 331.734C390.769 331.734 395.437 336.326 395.437 341.977V461.029C395.437 466.66 390.788 471.252 385.024 471.252Z" fill="#3DE09B"/>
<path d="M428.034 443.228H372.325L370.625 472.575L388.01 474.2C388.01 474.2 391.733 483.497 400.161 483.497C408.589 483.497 412.312 474.2 412.312 474.2L429.697 472.575L428.034 443.228Z" fill="#424242"/>
<path fill-rule="evenodd" clip-rule="evenodd" d="M413.534 471.144L429.729 472.543L429.325 477.218L413.13 475.82L413.534 471.144Z" fill="#616161"/>
<path fill-rule="evenodd" clip-rule="evenodd" d="M387.191 475.82L370.996 477.218L370.593 472.543L386.788 471.144L387.191 475.82Z" fill="#616161"/>
<path d="M505.324 347.117L497.765 336.723L400.161 447.65L302.557 336.723L294.998 347.117L293.94 470.61C293.94 470.61 314.009 473.123 340.824 470.402C364.181 468.04 375.179 461.992 382.983 463.561C392.356 465.451 394.057 471.214 394.359 472.197C395.21 474.918 396.892 477.035 400.161 477.035C403.43 477.035 404.885 475.901 405.887 472.537C406.189 471.554 407.965 465.47 417.338 463.58C425.143 462.011 436.141 468.058 459.498 470.421C486.313 473.142 506.382 470.628 506.382 470.628L505.324 347.117Z" fill="#B5B5B5"/>
<path d="M495.214 458.704L495.516 408.835H505.853L506.382 470.61C506.382 470.61 498.162 467.416 495.214 458.704Z" fill="url(#paint12_linear_3_2)"/>
<path d="M495.686 429.641L495.214 458.723C495.214 458.723 472.613 457.552 436.613 451.316C413.068 447.234 400.161 460.311 400.161 460.311L399.953 429.641H495.686Z" fill="url(#paint13_linear_3_2)"/>
<path d="M304.636 429.641L305.108 458.723C305.108 458.723 327.709 457.552 363.708 451.316C387.254 447.234 400.161 460.311 400.161 460.311L399.953 429.641H304.636Z" fill="url(#paint14_linear_3_2)"/>
<path d="M305.108 458.704L304.806 408.835H294.45L293.94 470.61C293.94 470.61 302.141 467.416 305.108 458.704Z" fill="url(#paint15_linear_3_2)"/>
<path d="M497.765 336.723C497.765 336.723 447.612 327.293 425.596 326.065C404.885 324.912 400.633 335.457 400.218 336.723H400.142C399.707 335.457 395.455 324.931 374.744 326.065C352.729 327.293 302.576 336.723 302.576 336.723L300.346 458.421C300.346 458.421 360.061 445.911 374.517 447.536C388.974 449.161 400.161 460.311 400.161 460.311C400.161 460.311 411.367 449.161 425.823 447.536C440.28 445.911 499.995 458.421 499.995 458.421L497.765 336.723Z" fill="#F5F5F5"/>
<path opacity="0.26" d="M380.546 326.084L370.341 447.404C371.947 447.366 373.365 447.404 374.498 447.536C388.936 449.142 400.161 460.311 400.161 460.311L399.84 336.723C399.84 336.723 397.383 327.048 380.546 326.084Z" fill="#94D6BB"/>
<g opacity="0.5">
<path d="M327.048 342.128C321.946 343.016 317.769 343.772 315.388 344.187C315.388 345.359 315.388 346.644 315.369 348.024C317.467 347.646 321.738 346.871 327.048 345.945V342.128Z" fill="#757575"/>
<path d="M373.043 336.043V339.803C383.116 339.784 388.69 342.317 390.523 343.337C390.523 341.769 390.542 340.37 390.542 339.142C387.424 337.744 381.717 336.024 373.043 336.043Z" fill="#757575"/>
<path d="M364.842 336.515C356.66 337.347 345.265 339.085 335.249 340.748V344.584C345.189 342.94 356.603 341.183 364.842 340.314V336.515Z" fill="#757575"/>
<path d="M344.717 352.823C332.509 354.713 320.264 356.905 315.35 357.793C315.35 359.041 315.35 360.326 315.35 361.63C319.621 360.855 332.15 358.587 344.717 356.641V352.823Z" fill="#757575"/>
<path d="M367.45 349.876C363.463 350.197 358.379 350.839 352.918 351.595V355.412C358.493 354.619 363.708 353.976 367.752 353.636C381.32 352.521 388.482 355.847 390.485 356.981C390.485 355.526 390.485 354.127 390.485 352.767C386.782 351.123 379.355 348.893 367.45 349.876Z" fill="#757575"/>
<path d="M329.07 368.981C323.098 370.001 318.109 370.889 315.35 371.399C315.35 372.666 315.35 373.951 315.35 375.236C317.826 374.782 322.89 373.875 329.07 372.817V368.981Z" fill="#757575"/>
<path d="M390.486 366.429C386.801 364.767 379.355 362.499 367.337 363.5C359.645 364.124 347.872 365.881 337.271 367.62V371.456C347.967 369.699 359.91 367.922 367.658 367.28C381.453 366.146 388.634 369.604 390.486 370.681C390.486 369.226 390.486 367.828 390.486 366.429Z" fill="#757575"/>
<path d="M390.504 380.092C386.857 378.429 379.374 376.105 367.261 377.106C366.033 377.201 364.71 377.333 363.311 377.484V381.283C364.842 381.113 366.259 380.98 367.582 380.867C381.642 379.714 388.823 383.324 390.523 384.344C390.504 382.927 390.504 381.509 390.504 380.092Z" fill="#757575"/>
<path d="M355.091 378.505C340.314 380.527 321.908 383.796 315.369 384.986C315.369 386.271 315.369 387.538 315.369 388.823C321.133 387.764 339.973 384.382 355.091 382.303V378.505Z" fill="#757575"/>
<path d="M332.604 395.588C325.177 396.835 318.752 397.988 315.369 398.592C315.369 399.877 315.369 401.162 315.369 402.429C318.431 401.862 324.95 400.69 332.604 399.405V395.588Z" fill="#757575"/>
<path d="M390.523 393.774C386.914 392.111 379.393 389.73 367.166 390.731C360.363 391.298 350.386 392.715 340.824 394.246V398.063C350.48 396.514 360.628 395.059 367.469 394.492C381.887 393.301 389.087 397.156 390.523 398.026C390.523 396.608 390.523 395.191 390.523 393.774Z" fill="#757575"/>
<path d="M390.561 421.118C387.122 419.474 379.676 416.998 367.393 417.924V421.723C383.059 420.457 390.164 425.143 390.561 425.426C390.561 424.028 390.561 422.592 390.561 421.118Z" fill="#757575"/>
<path d="M329.07 423.386C323.249 424.387 318.298 425.256 315.407 425.785C315.407 427.108 315.407 428.374 315.407 429.622C318.072 429.13 323.06 428.242 329.07 427.203V423.386Z" fill="#757575"/>
<path d="M337.271 422.025V425.861C344.603 424.671 352.483 423.461 359.192 422.611V418.794C352.521 419.625 344.641 420.816 337.271 422.025Z" fill="#757575"/>
<path d="M350.405 433.59C336.874 435.555 321.662 438.258 315.426 439.391C315.426 440.79 315.426 442.075 315.426 443.228C321.076 442.188 336.572 439.429 350.405 437.407V433.59Z" fill="#757575"/>
<path d="M390.58 434.799C387.16 433.137 379.544 430.548 366.845 431.587C364.445 431.776 361.648 432.097 358.606 432.475V436.273C361.762 435.877 364.672 435.555 367.148 435.347C383.324 434.006 390.429 439.032 390.504 439.07L390.599 438.957C390.599 437.653 390.599 436.273 390.58 434.799Z" fill="#757575"/>
<path d="M347.589 406.794C334.701 408.721 321.038 411.159 315.388 412.198C315.388 413.502 315.388 414.768 315.388 416.035C320.453 415.109 334.38 412.614 347.589 410.611V406.794Z" fill="#757575"/>
<path d="M390.542 407.436C386.99 405.773 379.45 403.317 367.053 404.337C363.878 404.602 360.004 405.055 355.809 405.622V409.439C360.137 408.854 364.124 408.381 367.374 408.117C382.265 406.888 389.465 411.027 390.561 411.726C390.542 410.328 390.542 408.891 390.542 407.436Z" fill="#757575"/>
</g>
<g opacity="0.5">
<path d="M446.289 341.24C461.936 343.318 482.383 347.022 487.938 348.024C487.938 346.625 487.938 345.359 487.919 344.187C481.419 342.997 461.52 339.444 446.27 337.422V341.24H446.289Z" fill="#757575"/>
<path d="M438.068 336.477C437.256 336.402 436.481 336.326 435.744 336.27C423.896 335.287 416.488 337.498 412.765 339.142C412.765 340.37 412.784 341.788 412.784 343.337C414.901 342.165 422.063 338.934 435.442 340.03C436.273 340.106 437.161 340.181 438.068 340.276V336.477Z" fill="#757575"/>
<path d="M472.65 358.946C479.586 360.137 485.33 361.157 487.957 361.648C487.957 360.326 487.957 359.06 487.957 357.812C484.99 357.264 479.359 356.263 472.65 355.129V358.946Z" fill="#757575"/>
<path d="M464.449 353.749C454.226 352.105 443.19 350.48 435.858 349.876C423.952 348.893 416.526 351.123 412.803 352.767C412.803 354.127 412.803 355.526 412.803 356.981C414.806 355.847 421.968 352.521 435.536 353.636C442.925 354.241 454.131 355.904 464.43 357.567V353.749H464.449Z" fill="#757575"/>
<path d="M462.862 367.091V370.908C473.841 372.666 484.064 374.517 487.957 375.236C487.957 373.932 487.957 372.666 487.957 371.399C483.554 370.606 473.52 368.811 462.862 367.091Z" fill="#757575"/>
<path d="M446.27 378.259C442.472 377.768 438.957 377.352 436.047 377.125C423.934 376.124 416.45 378.448 412.803 380.111C412.803 381.528 412.803 382.946 412.803 384.363C414.504 383.361 421.704 379.733 435.744 380.886C438.73 381.131 442.358 381.547 446.27 382.076V378.259Z" fill="#757575"/>
<path d="M454.49 379.412V383.229C468.191 385.27 482.949 387.934 487.938 388.842C487.938 387.557 487.938 386.271 487.938 385.005C482.307 383.966 467.851 381.396 454.49 379.412Z" fill="#757575"/>
<path d="M456.153 393.263C448.689 392.13 441.451 391.166 436.16 390.731C423.915 389.73 416.394 392.111 412.803 393.774C412.803 395.191 412.803 396.627 412.803 398.044C414.239 397.156 421.439 393.32 435.858 394.511C441.206 394.945 448.594 395.947 456.172 397.1V393.263H456.153Z" fill="#757575"/>
<path d="M464.355 394.548V398.385C474.635 400.048 484.045 401.748 487.919 402.447C487.919 401.181 487.919 399.896 487.919 398.611C483.611 397.818 474.351 396.155 464.355 394.548Z" fill="#757575"/>
<path d="M477.715 410.384V414.22C482.175 414.995 485.822 415.657 487.9 416.035C487.9 414.768 487.9 413.483 487.9 412.198C485.633 411.783 482.042 411.14 477.715 410.384Z" fill="#757575"/>
<path d="M447.952 419.285C443.624 418.699 439.618 418.227 436.368 417.962C423.82 416.923 416.242 419.455 412.765 421.118C412.765 422.592 412.765 424.028 412.765 425.426C413.162 425.143 420.305 420.419 436.085 421.723C439.41 421.987 443.53 422.478 447.99 423.083V419.285H447.952Z" fill="#757575"/>
<path d="M456.153 420.456V424.274C469.155 426.239 482.798 428.696 487.901 429.622C487.901 428.374 487.901 427.089 487.901 425.785C482.231 424.765 468.852 422.384 456.153 420.456Z" fill="#757575"/>
<path d="M462.862 435.102C453.281 433.571 443.265 432.135 436.462 431.568C423.745 430.529 416.148 433.136 412.728 434.781C412.728 436.255 412.728 437.634 412.728 438.938L412.822 439.051C412.879 439.014 419.984 433.987 436.179 435.329C443.039 435.895 453.224 437.369 462.9 438.919V435.102H462.862Z" fill="#757575"/>
<path d="M471.082 436.462V440.299C478.433 441.527 484.707 442.661 487.881 443.246C487.881 442.094 487.881 440.809 487.881 439.41C484.423 438.768 478.225 437.653 471.082 436.462Z" fill="#757575"/>
<path d="M435.933 404.318C423.726 403.355 416.28 405.792 412.765 407.436C412.765 408.873 412.765 410.309 412.765 411.726C413.861 411.027 421.042 406.888 435.933 408.117V404.318Z" fill="#757575"/>
<path d="M444.154 405.188V408.986C451.939 409.969 461.293 411.443 469.514 412.803V408.967C461.237 407.606 451.883 406.151 444.154 405.188Z" fill="#757575"/>
<path d="M429.867 363.274C421.401 363.33 415.827 365.069 412.822 366.429C412.822 367.828 412.822 369.226 412.822 370.662C414.409 369.755 419.833 367.129 429.867 367.034V363.274Z" fill="#757575"/>
<path d="M438.068 363.689V367.488C442.774 367.96 448.613 368.754 454.641 369.642V365.825C448.594 364.918 442.774 364.143 438.068 363.689Z" fill="#757575"/>
</g>
<path d="M413.691 471.139C411.575 470.95 409.628 472.254 408.948 474.276C407.927 477.356 405.546 481.381 400.161 481.381C394.718 481.381 392.318 477.337 391.279 474.257C390.599 472.273 388.69 470.988 386.593 471.158L385.856 471.214L385.874 471.819C385.874 479.699 392.262 486.086 400.142 486.086C408.022 486.086 414.409 479.699 414.409 471.819C414.409 471.63 414.39 471.195 414.39 471.195L413.691 471.139Z" fill="#616161"/>
</g>
<defs>
<filter id="filter0_di_3_2" x="-4" y="33" width="493.869" height="452.444" filterUnits="userSpaceOnUse" color-interpolation-filters="sRGB">
<feFlood flood-opacity="0" result="BackgroundImageFix"/>
<feColorMatrix in="SourceAlpha" type="matrix" values="0 0 0 0 0 0 0 0 0 0 0 0 0 0 0 0 0 0 127 0" result="hardAlpha"/>
<feOffset dy="10"/>
<feGaussianBlur stdDeviation="13"/>
<feColorMatrix type="matrix" values="0 0 0 0 0.0534137 0 0 0 0 0.0534137 0 0 0 0 0.0534137 0 0 0 0.2 0"/>
<feBlend mode="normal" in2="BackgroundImageFix" result="effect1_dropShadow_3_2"/>
<feBlend mode="normal" in="SourceGraphic" in2="effect1_dropShadow_3_2" result="shape"/>
<feColorMatrix in="SourceAlpha" type="matrix" values="0 0 0 0 0 0 0 0 0 0 0 0 0 0 0 0 0 0 127 0" result="hardAlpha"/>
<feOffset dx="6" dy="6"/>
<feGaussianBlur stdDeviation="16.5"/>
<feComposite in2="hardAlpha" operator="arithmetic" k2="-1" k3="1"/>
<feColorMatrix type="matrix" values="0 0 0 0 0.427429 0 0 0 0 0.427429 0 0 0 0 0.427429 0 0 0 0.414964 0"/>
<feBlend mode="normal" in2="shape" result="effect2_innerShadow_3_2"/>
</filter>
<filter id="filter1_i_3_2" x="51.2433" y="80.1455" width="381.383" height="307.006" filterUnits="userSpaceOnUse" color-interpolation-filters="sRGB">
<feFlood flood-opacity="0" result="BackgroundImageFix"/>
<feBlend mode="normal" in="SourceGraphic" in2="BackgroundImageFix" result="shape"/>
<feColorMatrix in="SourceAlpha" type="matrix" values="0 0 0 0 0 0 0 0 0 0 0 0 0 0 0 0 0 0 127 0" result="hardAlpha"/>
<feOffset dx="-2"/>
<feGaussianBlur stdDeviation="6"/>
<feComposite in2="hardAlpha" operator="arithmetic" k2="-1" k3="1"/>
<feColorMatrix type="matrix" values="0 0 0 0 0 0 0 0 0 0 0 0 0 0 0 0 0 0 0.2 0"/>
<feBlend mode="normal" in2="shape" result="effect1_innerShadow_3_2"/>
</filter>
<filter id="filter2_di_3_2" x="58.5018" y="116.423" width="114.457" height="274.453" filterUnits="userSpaceOnUse" color-interpolation-filters="sRGB">
<feFlood flood-opacity="0" result="BackgroundImageFix"/>
<feColorMatrix in="SourceAlpha" type="matrix" values="0 0 0 0 0 0 0 0 0 0 0 0 0 0 0 0 0 0 127 0" result="hardAlpha"/>
<feOffset dy="20"/>
<feGaussianBlur stdDeviation="13"/>
<feColorMatrix type="matrix" values="0 0 0 0 0.0534137 0 0 0 0 0.0534137 0 0 0 0 0.0534137 0 0 0 0.5 0"/>
<feBlend mode="normal" in2="BackgroundImageFix" result="effect1_dropShadow_3_2"/>
<feBlend mode="normal" in="SourceGraphic" in2="effect1_dropShadow_3_2" result="shape"/>
<feColorMatrix in="SourceAlpha" type="matrix" values="0 0 0 0 0 0 0 0 0 0 0 0 0 0 0 0 0 0 127 0" result="hardAlpha"/>
<feOffset dx="6" dy="6"/>
<feGaussianBlur stdDeviation="16.5"/>
<feComposite in2="hardAlpha" operator="arithmetic" k2="-1" k3="1"/>
<feColorMatrix type="matrix" values="0 0 0 0 0.427429 0 0 0 0 0.427429 0 0 0 0 0.427429 0 0 0 0.414964 0"/>
<feBlend mode="normal" in2="shape" result="effect2_innerShadow_3_2"/>
</filter>
<filter id="filter3_di_3_2" x="143.305" y="116.423" width="114.457" height="274.453" filterUnits="userSpaceOnUse" color-interpolation-filters="sRGB">
<feFlood flood-opacity="0" result="BackgroundImageFix"/>
<feColorMatrix in="SourceAlpha" type="matrix" values="0 0 0 0 0 0 0 0 0 0 0 0 0 0 0 0 0 0 127 0" result="hardAlpha"/>
<feOffset dy="20"/>
<feGaussianBlur stdDeviation="13"/>
<feColorMatrix type="matrix" values="0 0 0 0 0.0534137 0 0 0 0 0.0534137 0 0 0 0 0.0534137 0 0 0 0.5 0"/>
<feBlend mode="normal" in2="BackgroundImageFix" result="effect1_dropShadow_3_2"/>
<feBlend mode="normal" in="SourceGraphic" in2="effect1_dropShadow_3_2" result="shape"/>
<feColorMatrix in="SourceAlpha" type="matrix" values="0 0 0 0 0 0 0 0 0 0 0 0 0 0 0 0 0 0 127 0" result="hardAlpha"/>
<feOffset dx="6" dy="6"/>
<feGaussianBlur stdDeviation="16.5"/>
<feComposite in2="hardAlpha" operator="arithmetic" k2="-1" k3="1"/>
<feColorMatrix type="matrix" values="0 0 0 0 0.427429 0 0 0 0 0.427429 0 0 0 0 0.427429 0 0 0 0.414964 0"/>
<feBlend mode="normal" in2="shape" result="effect2_innerShadow_3_2"/>
</filter>
<filter id="filter4_di_3_2" x="228.109" y="116.423" width="114.456" height="274.453" filterUnits="userSpaceOnUse" color-interpolation-filters="sRGB">
<feFlood flood-opacity="0" result="BackgroundImageFix"/>
<feColorMatrix in="SourceAlpha" type="matrix" values="0 0 0 0 0 0 0 0 0 0 0 0 0 0 0 0 0 0 127 0" result="hardAlpha"/>
<feOffset dy="20"/>
<feGaussianBlur stdDeviation="13"/>
<feColorMatrix type="matrix" values="0 0 0 0 0.0534137 0 0 0 0 0.0534137 0 0 0 0 0.0534137 0 0 0 0.5 0"/>
<feBlend mode="normal" in2="BackgroundImageFix" result="effect1_dropShadow_3_2"/>
<feBlend mode="normal" in="SourceGraphic" in2="effect1_dropShadow_3_2" result="shape"/>
<feColorMatrix in="SourceAlpha" type="matrix" values="0 0 0 0 0 0 0 0 0 0 0 0 0 0 0 0 0 0 127 0" result="hardAlpha"/>
<feOffset dx="6" dy="6"/>
<feGaussianBlur stdDeviation="16.5"/>
<feComposite in2="hardAlpha" operator="arithmetic" k2="-1" k3="1"/>
<feColorMatrix type="matrix" values="0 0 0 0 0.427429 0 0 0 0 0.427429 0 0 0 0 0.427429 0 0 0 0.414964 0"/>
<feBlend mode="normal" in2="shape" result="effect2_innerShadow_3_2"/>
</filter>
<filter id="filter5_di_3_2" x="312.912" y="116.423" width="114.456" height="274.453" filterUnits="userSpaceOnUse" color-interpolation-filters="sRGB">
<feFlood flood-opacity="0" result="BackgroundImageFix"/>
<feColorMatrix in="SourceAlpha" type="matrix" values="0 0 0 0 0 0 0 0 0 0 0 0 0 0 0 0 0 0 127 0" result="hardAlpha"/>
<feOffset dy="20"/>
<feGaussianBlur stdDeviation="13"/>
<feColorMatrix type="matrix" values="0 0 0 0 0.0534137 0 0 0 0 0.0534137 0 0 0 0 0.0534137 0 0 0 0.5 0"/>
<feBlend mode="normal" in2="BackgroundImageFix" result="effect1_dropShadow_3_2"/>
<feBlend mode="normal" in="SourceGraphic" in2="effect1_dropShadow_3_2" result="shape"/>
<feColorMatrix in="SourceAlpha" type="matrix" values="0 0 0 0 0 0 0 0 0 0 0 0 0 0 0 0 0 0 127 0" result="hardAlpha"/>
<feOffset dx="6" dy="6"/>
<feGaussianBlur stdDeviation="16.5"/>
<feComposite in2="hardAlpha" operator="arithmetic" k2="-1" k3="1"/>
<feColorMatrix type="matrix" values="0 0 0 0 0.427429 0 0 0 0 0.427429 0 0 0 0 0.427429 0 0 0 0.414964 0"/>
<feBlend mode="normal" in2="shape" result="effect2_innerShadow_3_2"/>
</filter>
<filter id="filter6_di_3_2" x="228.538" y="401.998" width="28.7938" height="28.7231" filterUnits="userSpaceOnUse" color-interpolation-filters="sRGB">
<feFlood flood-opacity="0" result="BackgroundImageFix"/>
<feColorMatrix in="SourceAlpha" type="matrix" values="0 0 0 0 0 0 0 0 0 0 0 0 0 0 0 0 0 0 127 0" result="hardAlpha"/>
<feOffset dy="-2"/>
<feGaussianBlur stdDeviation="2"/>
<feColorMatrix type="matrix" values="0 0 0 0 0.450294 0 0 0 0 0.450294 0 0 0 0 0.450294 0 0 0 0.628415 0"/>
<feBlend mode="normal" in2="BackgroundImageFix" result="effect1_dropShadow_3_2"/>
<feBlend mode="normal" in="SourceGraphic" in2="effect1_dropShadow_3_2" result="shape"/>
<feColorMatrix in="SourceAlpha" type="matrix" values="0 0 0 0 0 0 0 0 0 0 0 0 0 0 0 0 0 0 127 0" result="hardAlpha"/>
<feOffset/>
<feGaussianBlur stdDeviation="5"/>
<feComposite in2="hardAlpha" operator="arithmetic" k2="-1" k3="1"/>
<feColorMatrix type="matrix" values="0 0 0 0 0.905862 0 0 0 0 1 0 0 0 0 0.470342 0 0 0 1 0"/>
<feBlend mode="normal" in2="shape" result="effect2_innerShadow_3_2"/>
</filter>
<filter id="filter7_di_3_2" x="181.752" y="401.998" width="28.7938" height="28.7231" filterUnits="userSpaceOnUse" color-interpolation-filters="sRGB">
<feFlood flood-opacity="0" result="BackgroundImageFix"/>
<feColorMatrix in="SourceAlpha" type="matrix" values="0 0 0 0 0 0 0 0 0 0 0 0 0 0 0 0 0 0 127 0" result="hardAlpha"/>
<feOffset dy="-2"/>
<feGaussianBlur stdDeviation="2"/>
<feColorMatrix type="matrix" values="0 0 0 0 0.450294 0 0 0 0 0.450294 0 0 0 0 0.450294 0 0 0 0.628415 0"/>
<feBlend mode="normal" in2="BackgroundImageFix" result="effect1_dropShadow_3_2"/>
<feBlend mode="normal" in="SourceGraphic" in2="effect1_dropShadow_3_2" result="shape"/>
<feColorMatrix in="SourceAlpha" type="matrix" values="0 0 0 0 0 0 0 0 0 0 0 0 0 0 0 0 0 0 127 0" result="hardAlpha"/>
<feOffset/>
<feGaussianBlur stdDeviation="5"/>
<feComposite in2="hardAlpha" operator="arithmetic" k2="-1" k3="1"/>
<feColorMatrix type="matrix" values="0 0 0 0 0.905862 0 0 0 0 1 0 0 0 0 0.470342 0 0 0 1 0"/>
<feBlend mode="normal" in2="shape" result="effect2_innerShadow_3_2"/>
</filter>
<filter id="filter8_di_3_2" x="275.324" y="401.998" width="28.7939" height="28.7231" filterUnits="userSpaceOnUse" color-interpolation-filters="sRGB">
<feFlood flood-opacity="0" result="BackgroundImageFix"/>
<feColorMatrix in="SourceAlpha" type="matrix" values="0 0 0 0 0 0 0 0 0 0 0 0 0 0 0 0 0 0 127 0" result="hardAlpha"/>
<feOffset dy="-2"/>
<feGaussianBlur stdDeviation="2"/>
<feColorMatrix type="matrix" values="0 0 0 0 0.450294 0 0 0 0 0.450294 0 0 0 0 0.450294 0 0 0 0.628415 0"/>
<feBlend mode="normal" in2="BackgroundImageFix" result="effect1_dropShadow_3_2"/>
<feBlend mode="normal" in="SourceGraphic" in2="effect1_dropShadow_3_2" result="shape"/>
<feColorMatrix in="SourceAlpha" type="matrix" values="0 0 0 0 0 0 0 0 0 0 0 0 0 0 0 0 0 0 127 0" result="hardAlpha"/>
<feOffset/>
<feGaussianBlur stdDeviation="5"/>
<feComposite in2="hardAlpha" operator="arithmetic" k2="-1" k3="1"/>
<feColorMatrix type="matrix" values="0 0 0 0 0.905862 0 0 0 0 1 0 0 0 0 0.470342 0 0 0 1 0"/>
<feBlend mode="normal" in2="shape" result="effect2_innerShadow_3_2"/>
</filter>
<linearGradient id="paint0_linear_3_2" x1="22" y1="49" x2="22" y2="449.444" gradientUnits="userSpaceOnUse">
<stop stop-color="#E5E5EA"/>
<stop offset="1" stop-color="#8E8E93"/>
</linearGradient>
<linearGradient id="paint1_linear_3_2" x1="86.7183" y1="124.639" x2="86.7183" y2="342.659" gradientUnits="userSpaceOnUse">
<stop stop-color="#E5E5EA"/>
<stop offset="1" stop-color="#8E8E93"/>
</linearGradient>
<linearGradient id="paint2_linear_3_2" x1="87.8098" y1="128.368" x2="87.8098" y2="338.181" gradientUnits="userSpaceOnUse">
<stop stop-color="#CECED4"/>
<stop offset="1" stop-color="#B3B3B8"/>
</linearGradient>
<linearGradient id="paint3_linear_3_2" x1="171.521" y1="124.639" x2="171.521" y2="342.659" gradientUnits="userSpaceOnUse">
<stop stop-color="#E5E5EA"/>
<stop offset="1" stop-color="#8E8E93"/>
</linearGradient>
<linearGradient id="paint4_linear_3_2" x1="172.614" y1="128.368" x2="172.614" y2="338.181" gradientUnits="userSpaceOnUse">
<stop stop-color="#CECED4"/>
<stop offset="1" stop-color="#B3B3B8"/>
</linearGradient>
<linearGradient id="paint5_linear_3_2" x1="256.325" y1="124.639" x2="256.325" y2="342.659" gradientUnits="userSpaceOnUse">
<stop stop-color="#E5E5EA"/>
<stop offset="1" stop-color="#8E8E93"/>
</linearGradient>
<linearGradient id="paint6_linear_3_2" x1="257.417" y1="128.368" x2="257.417" y2="338.181" gradientUnits="userSpaceOnUse">
<stop stop-color="#CECED4"/>
<stop offset="1" stop-color="#B3B3B8"/>
</linearGradient>
<linearGradient id="paint7_linear_3_2" x1="341.128" y1="124.639" x2="341.128" y2="342.659" gradientUnits="userSpaceOnUse">
<stop stop-color="#E5E5EA"/>
<stop offset="1" stop-color="#8E8E93"/>
</linearGradient>
<linearGradient id="paint8_linear_3_2" x1="342.22" y1="128.368" x2="342.22" y2="338.181" gradientUnits="userSpaceOnUse">
<stop stop-color="#CECED4"/>
<stop offset="1" stop-color="#B3B3B8"/>
</linearGradient>
<linearGradient id="paint9_linear_3_2" x1="232.538" y1="407.998" x2="232.538" y2="428.721" gradientUnits="userSpaceOnUse">
<stop stop-color="#86FFA4"/>
<stop offset="1" stop-color="#32FF55"/>
</linearGradient>
<linearGradient id="paint10_linear_3_2" x1="185.752" y1="407.998" x2="185.752" y2="428.721" gradientUnits="userSpaceOnUse">
<stop stop-color="#86FFA4"/>
<stop offset="1" stop-color="#32FF55"/>
</linearGradient>
<linearGradient id="paint11_linear_3_2" x1="279.324" y1="407.998" x2="279.324" y2="428.721" gradientUnits="userSpaceOnUse">
<stop stop-color="#86FFA4"/>
<stop offset="1" stop-color="#32FF55"/>
</linearGradient>
<linearGradient id="paint12_linear_3_2" x1="500.776" y1="451.771" x2="501.244" y2="419.074" gradientUnits="userSpaceOnUse">
<stop offset="0.2665" stop-color="#A1A1A1"/>
<stop offset="1" stop-color="#A1A1A1" stop-opacity="0"/>
</linearGradient>
<linearGradient id="paint13_linear_3_2" x1="411.342" y1="444.968" x2="492.245" y2="444.968" gradientUnits="userSpaceOnUse">
<stop stop-color="#5C5C5C"/>
<stop offset="1" stop-color="#A1A1A1"/>
</linearGradient>
<linearGradient id="paint14_linear_3_2" x1="388.783" y1="444.968" x2="308.062" y2="444.968" gradientUnits="userSpaceOnUse">
<stop stop-color="#5C5C5C"/>
<stop offset="1" stop-color="#A1A1A1"/>
</linearGradient>
<linearGradient id="paint15_linear_3_2" x1="299.539" y1="451.771" x2="299.071" y2="419.073" gradientUnits="userSpaceOnUse">
<stop offset="0.2665" stop-color="#A1A1A1"/>
<stop offset="1" stop-color="#A1A1A1" stop-opacity="0"/>
</linearGradient>
<clipPath id="clip0_3_2">
<rect width="536" height="536" fill="white"/>
</clipPath>
</defs>
</svg>
